#N canvas 106 111 1228 699 16;
#X obj 100 434 dac~;
#N canvas 1 58 450 250 (subpatch) 0;
#X array \$0-ONDA_L 4800 float 0;
#X coords 0 1 4800 -1 300 180 1 0 0;
#X restore 295 453 graph;
#N canvas 1 58 450 250 (subpatch) 0;
#X array \$0-ONDA_R 4800 float 0;
#X coords 0 1 4800 -1 300 180 1 0 0;
#X restore 646 453 graph;
#N canvas 25 58 727 475 MIX 0;
#X obj 48 47 inlet~;
#X obj 172 47 inlet~;
#X obj 302 47 inlet~;
#X obj 432 47 inlet~;
#X obj 562 47 inlet~;
#X obj 47 391 outlet~;
#X obj 427 391 outlet~;
#X obj 47 316 hip~ 3;
#N canvas 1 58 559 276 PLOT 0;
#X obj 59 48 loadbang;
#X obj 59 73 f 1;
#X obj 59 98 metro 100;
#X obj 59 123 t b b;
#X obj 59 191 tabwrite~ \$0-ONDA_L;
#X obj 280 191 tabwrite~ \$0-ONDA_R;
#X obj 90 166 catch~ \$0-ONDA_L;
#X obj 310 166 catch~ \$0-ONDA_R;
#X connect 0 0 1 0;
#X connect 1 0 2 0;
#X connect 2 0 3 0;
#X connect 3 0 4 0;
#X connect 3 1 5 0;
#X connect 6 0 4 0;
#X connect 7 0 5 0;
#X restore 592 311 pd PLOT;
#X obj 48 82 lop~ 2000;
#X obj 168 266 rev2~ 85 85 8000 36;
#X obj 427 316 hip~ 3;
#X obj 47 291 +~;
#X obj 427 291 +~;
#X obj 48 107 *~ 0.7;
#N canvas 1 58 324 308 cospan~ 0;
#X obj 73 37 inlet~;
#X obj 182 37 inlet~;
#X obj 91 172 cos~;
#X obj 73 195 *~;
#X obj 182 65 clip~ 0 1;
#X obj 182 92 *~ 0.25;
#X obj 181 172 cos~;
#X obj 163 195 *~;
#X obj 182 119 -~ 0.25;
#X obj 73 242 outlet~;
#X obj 163 242 outlet~;
#X connect 0 0 3 0;
#X connect 0 0 7 0;
#X connect 1 0 4 0;
#X connect 2 0 3 1;
#X connect 3 0 9 0;
#X connect 4 0 5 0;
#X connect 5 0 2 0;
#X connect 5 0 8 0;
#X connect 6 0 7 1;
#X connect 7 0 10 0;
#X connect 8 0 6 0;
#X restore 172 168 pd cospan~;
#N canvas 1 58 324 308 cospan~ 0;
#X obj 73 37 inlet~;
#X obj 182 37 inlet~;
#X obj 91 172 cos~;
#X obj 73 195 *~;
#X obj 182 65 clip~ 0 1;
#X obj 182 92 *~ 0.25;
#X obj 181 172 cos~;
#X obj 163 195 *~;
#X obj 182 119 -~ 0.25;
#X obj 73 242 outlet~;
#X obj 163 242 outlet~;
#X connect 0 0 3 0;
#X connect 0 0 7 0;
#X connect 1 0 4 0;
#X connect 2 0 3 1;
#X connect 3 0 9 0;
#X connect 4 0 5 0;
#X connect 5 0 2 0;
#X connect 5 0 8 0;
#X connect 6 0 7 1;
#X connect 7 0 10 0;
#X connect 8 0 6 0;
#X restore 302 168 pd cospan~;
#X obj 322 143 sig~ 0.5;
#X obj 47 366 clip~ -1 1;
#X obj 427 366 clip~ -1 1;
#N canvas 1 58 324 308 cospan~ 0;
#X obj 73 37 inlet~;
#X obj 182 37 inlet~;
#X obj 91 172 cos~;
#X obj 73 195 *~;
#X obj 182 65 clip~ 0 1;
#X obj 182 92 *~ 0.25;
#X obj 181 172 cos~;
#X obj 163 195 *~;
#X obj 182 119 -~ 0.25;
#X obj 73 242 outlet~;
#X obj 163 242 outlet~;
#X connect 0 0 3 0;
#X connect 0 0 7 0;
#X connect 1 0 4 0;
#X connect 2 0 3 1;
#X connect 3 0 9 0;
#X connect 4 0 5 0;
#X connect 5 0 2 0;
#X connect 5 0 8 0;
#X connect 6 0 7 1;
#X connect 7 0 10 0;
#X connect 8 0 6 0;
#X restore 432 168 pd cospan~;
#N canvas 1 58 324 308 cospan~ 0;
#X obj 73 37 inlet~;
#X obj 182 37 inlet~;
#X obj 91 172 cos~;
#X obj 73 195 *~;
#X obj 182 65 clip~ 0 1;
#X obj 182 92 *~ 0.25;
#X obj 181 172 cos~;
#X obj 163 195 *~;
#X obj 182 119 -~ 0.25;
#X obj 73 242 outlet~;
#X obj 163 242 outlet~;
#X connect 0 0 3 0;
#X connect 0 0 7 0;
#X connect 1 0 4 0;
#X connect 2 0 3 1;
#X connect 3 0 9 0;
#X connect 4 0 5 0;
#X connect 5 0 2 0;
#X connect 5 0 8 0;
#X connect 6 0 7 1;
#X connect 7 0 10 0;
#X connect 8 0 6 0;
#X restore 562 168 pd cospan~;
#X obj 582 143 sig~ 0.3;
#X obj 452 143 sig~ 0.5;
#N canvas 1 58 324 308 cospan~ 0;
#X obj 73 37 inlet~;
#X obj 182 37 inlet~;
#X obj 91 172 cos~;
#X obj 73 195 *~;
#X obj 182 65 clip~ 0 1;
#X obj 182 92 *~ 0.25;
#X obj 181 172 cos~;
#X obj 163 195 *~;
#X obj 182 119 -~ 0.25;
#X obj 73 242 outlet~;
#X obj 163 242 outlet~;
#X connect 0 0 3 0;
#X connect 0 0 7 0;
#X connect 1 0 4 0;
#X connect 2 0 3 1;
#X connect 3 0 9 0;
#X connect 4 0 5 0;
#X connect 5 0 2 0;
#X connect 5 0 8 0;
#X connect 6 0 7 1;
#X connect 7 0 10 0;
#X connect 8 0 6 0;
#X restore 48 168 pd cospan~;
#X obj 68 143 sig~ 0.5;
#X obj 192 143 sig~ 0.7;
#X obj 132 391 throw~ \$0-ONDA_L;
#X obj 512 391 throw~ \$0-ONDA_R;
#X obj 47 341 *~ 1.3;
#X obj 427 341 *~ 1.3;
#X connect 0 0 9 0;
#X connect 1 0 15 0;
#X connect 2 0 16 0;
#X connect 3 0 20 0;
#X connect 4 0 21 0;
#X connect 7 0 29 0;
#X connect 9 0 14 0;
#X connect 10 0 12 1;
#X connect 10 1 13 1;
#X connect 10 2 12 1;
#X connect 10 3 13 1;
#X connect 11 0 30 0;
#X connect 12 0 7 0;
#X connect 13 0 11 0;
#X connect 14 0 10 0;
#X connect 14 0 24 0;
#X connect 15 0 12 0;
#X connect 15 1 13 0;
#X connect 16 0 12 0;
#X connect 16 1 13 0;
#X connect 17 0 16 1;
#X connect 18 0 5 0;
#X connect 18 0 27 0;
#X connect 19 0 6 0;
#X connect 19 0 28 0;
#X connect 20 0 12 0;
#X connect 20 1 13 0;
#X connect 21 0 12 0;
#X connect 21 1 13 0;
#X connect 22 0 21 1;
#X connect 23 0 20 1;
#X connect 24 0 12 0;
#X connect 24 1 13 0;
#X connect 25 0 24 1;
#X connect 26 0 15 1;
#X connect 29 0 18 0;
#X connect 30 0 19 0;
#X restore 100 409 pd MIX;
#X obj 101 62 phasor~ 0.0625;
#X obj 101 87 *~ 128000;
#X obj 823 87 *~ 60;
#X obj 823 112 samphold~;
#X obj 910 87 expr~ fmod(16*$v1 \, 1);
#X obj 823 62 phasor~ 0.0166667;
#X obj 100 137 expr~ [ ( ($v1%200 > (8/($v1/1000%4))) * (sin($v1/4000)*0.5+0.5)
* 0.3 ) * 0.2 ] + [ ( ($v1%200 > (8/($v1/1000%4))) * (sin($v1/4000)*0.5+0.5)
* 0.3 ) * 0.5 ] + [ ( [ sin(($v1*4) / ($v1/1000%3 * ($v1/(4000-(($v2>=39
&& $v2<51)*3000))%8+2))) * pow(1-$v1%8000/8000 \, 5) * 0.3 ] + [ sin(($v1*3)
/ ($v1/1000%5 * ($v1/(3000-(($v2>=39 && $v2<51 )*2000))%8+2))) * pow(1-$v1%3000/3000
\, 3) * 0.3] + [ sin(($v1) / ($v1/1000%12 * ($v1/1000%5))) * pow(1-$v1%7000/7000
\, 2) * 0.4 ] ) * (($v2>7 && $v2<31) || ($v2>=39 && $v2<51 )) ] \;
( $v1/($v1/1000%16+1)%2 * pow(1-$v1%1000/1000 \, 2) * (($v1>>($v1>>1))
%2) * ($v1/500%12 > ($v1/1000%8)) * ($v1/3000%3!=0) * 0.2 ) * (($v2>15
&& $v2<28) || ($v2>=43 && $v2<51)) \; ( [ atan(2*sin($v1/12 + sin($v1/24))
* pow(1-$v1%4000/4000 \, ($v1/4000%8+12))) * 0.6 ] + [ sin($v1*sin($v1))
* pow(1-$v1%4000/4000 \, 64) * 0.1 ] ) * (($v2>15 && $v2<31) || ($v2>=39
&& $v2<51)) \; ( sin($v1/ ($v1/1000%4+3) + sin($v1/2) * sin($v1*($v1/2000%5+2)))
* pow($v1%8000/8000 \, 0.5) * ($v1/1000%9!=2 && $v1/1000%6!=5 && $v1/3000%3!=1)
* 0.1 ) * ($v2>=31 && $v2<55) \; ( [ sin($v1 % (($v1/3000%8+1)*10)
* sin($v1)) * pow(1-$v1%3000/3000 \, ($v1/1000%8+1*2)) * 0.15 ] + [
sin($v1%90 * sin($v1 & ($v1/500%64))) * pow(1-$v1%5000/5000 \, 24)
* 0.3 ] ) * ($v2>=35 && $v2<55) \;, f 102;
#N canvas 1 58 657 251 INFO 0;
#X text 59 54 Título: fase && ondas;
#X text 59 84 Artista: Indizível;
#X text 59 154 Licença: GPLV3 - https://www.gnu.org/licenses/gpl-3.0
;
#X text 59 114 Data: 02/2021;
#X restore 1139 12 pd INFO;
#X connect 3 0 0 0;
#X connect 3 1 0 1;
#X connect 4 0 5 0;
#X connect 4 0 8 0;
#X connect 5 0 10 0;
#X connect 6 0 7 0;
#X connect 7 0 10 1;
#X connect 8 0 7 1;
#X connect 9 0 6 0;
#X connect 10 0 3 0;
#X connect 10 1 3 1;
#X connect 10 2 3 2;
#X connect 10 3 3 3;
#X connect 10 4 3 4;
