#N canvas 1226 4 1080 1048 16;
#X obj 67 601 dac~;
#X obj 364 421 phasor~ 1;
#X obj 364 446 *~ 1000;
#X obj 664 448 phasor~ 0.3;
#X obj 664 423 *~;
#X obj 664 473 *~;
#X obj 698 473 +~ 1;
#X obj 698 498 *~ 2;
#X obj 828 467 loadbang;
#X obj 828 492 t b b;
#X msg 923 516 \; pd dsp 1;
#X obj 828 535 metro 100;
#X obj 828 560 tabwrite~ \$0-view;
#X obj 664 398 phasor~ 0.03;
#N canvas 0 50 450 250 (subpatch) 0;
#X array \$0-view 4800 float 0;
#X coords 0 1 4800 -1 1000 350 1 0 0;
#X restore 39 340 graph;
#X obj 67 473 *~ 65536;
#X obj 67 448 phasor~ 0.125;
#X obj 67 498 expr~ sin(($v1+($v1>>3))/($v1/$v2%$v3+($v1/3000%($v1/3333%11+1))))
* (1-$v1%7000/9000) * 0.9;
#X connect 1 0 2 0;
#X connect 2 0 4 1;
#X connect 2 0 17 1;
#X connect 3 0 5 0;
#X connect 4 0 3 0;
#X connect 5 0 17 2;
#X connect 6 0 7 0;
#X connect 7 0 5 1;
#X connect 8 0 9 0;
#X connect 9 0 11 0;
#X connect 9 1 10 0;
#X connect 11 0 12 0;
#X connect 13 0 1 0;
#X connect 13 0 4 0;
#X connect 15 0 17 0;
#X connect 16 0 6 0;
#X connect 16 0 15 0;
#X connect 17 0 0 0;
#X connect 17 0 0 1;
#X connect 17 0 12 0;
