#N canvas 556 0 998 932 12;
#X obj 234 493 *~;
#X obj 350 473 vline~;
#X obj 234 638 dac~;
#X obj 269 524 delwrite~ \$0-del 1000;
#X obj 535 535 vd~ \$0-del;
#X obj 535 388 *~ 0.5;
#X obj 535 409 +~ 0.5;
#X obj 535 430 *~;
#X obj 630 369 *~ 0.5;
#X obj 630 390 +~ 0.5;
#X obj 630 494 *~ 0.5;
#X obj 630 515 +~ 0.5;
#X obj 535 556 *~;
#X obj 350 368 rzero~ 0.999;
#X obj 350 326 phasor~ 2;
#X obj 350 389 threshold~ 0.9 0 0.2 0;
#X obj 350 347 *~ -1;
#X obj 630 411 *~ 1000;
#X obj 535 451 +~ 1;
#X obj 234 369 +~ 80;
#X obj 630 473 cos~;
#X obj 684 556 *~;
#X obj 702 535 cos~;
#X obj 702 514 +~ 0.25;
#X obj 630 536 *~ 1;
#X obj 234 411 -~ 0.5;
#X obj 535 576 lop~ 6000;
#X obj 535 367 osc~ 0.2;
#X obj 234 390 phasor~;
#X obj 630 348 osc~ 0.3;
#X obj 234 285 t f f;
#X obj 535 346 *~ 2;
#X obj 405 596 loadbang;
#X msg 684 623 \; pd dsp 1;
#X obj 405 617 metro 100;
#X obj 405 638 tabwrite~ \$0-view;
#X obj 684 602 loadbang;
#N canvas 0 50 450 250 (subpatch) 0;
#X array \$0-view 4800 float 0;
#X coords 0 1 4800 -1 600 450 1 0 0;
#X restore 195 236 graph;
#X obj 234 596 expr~ tanh($v1);
#X obj 234 617 clip~ -1 1;
#X obj 234 432 *~ 0.5;
#X obj 234 575 *~ 2;
#X obj 234 348 *~ 420;
#X obj 234 327 osc~ 0.05;
#X obj 350 410 t b b;
#X msg 350 452 1 10 0 \, 0 \$1 20;
#X obj 630 452 phasor~ 333;
#X obj 234 264 random 3;
#X obj 630 327 osc~ 0.1;
#X obj 350 305 + 1;
#X obj 234 306 / 1.25;
#X obj 350 431 random 500;
#X connect 0 0 3 0;
#X connect 0 0 41 0;
#X connect 1 0 0 1;
#X connect 4 0 12 0;
#X connect 4 0 21 0;
#X connect 5 0 6 0;
#X connect 6 0 7 0;
#X connect 7 0 18 0;
#X connect 8 0 9 0;
#X connect 9 0 17 0;
#X connect 10 0 11 0;
#X connect 11 0 24 0;
#X connect 12 0 26 0;
#X connect 13 0 15 0;
#X connect 14 0 16 0;
#X connect 15 0 44 0;
#X connect 16 0 13 0;
#X connect 17 0 7 1;
#X connect 18 0 4 0;
#X connect 19 0 28 0;
#X connect 20 0 10 0;
#X connect 21 0 41 0;
#X connect 22 0 21 1;
#X connect 23 0 22 0;
#X connect 24 0 12 1;
#X connect 25 0 40 0;
#X connect 26 0 3 0;
#X connect 27 0 5 0;
#X connect 28 0 25 0;
#X connect 29 0 8 0;
#X connect 30 0 50 0;
#X connect 30 1 49 0;
#X connect 31 0 27 0;
#X connect 32 0 34 0;
#X connect 34 0 35 0;
#X connect 36 0 33 0;
#X connect 38 0 39 0;
#X connect 39 0 35 0;
#X connect 39 0 2 0;
#X connect 39 0 2 1;
#X connect 40 0 0 0;
#X connect 41 0 38 0;
#X connect 42 0 19 0;
#X connect 43 0 31 0;
#X connect 43 0 42 0;
#X connect 44 0 51 0;
#X connect 44 1 47 0;
#X connect 45 0 1 0;
#X connect 46 0 20 0;
#X connect 46 0 23 0;
#X connect 47 0 30 0;
#X connect 48 0 29 0;
#X connect 49 0 14 0;
#X connect 50 0 43 0;
#X connect 51 0 45 0;
