#N canvas 1285 0 1041 974 12;
#X obj 163 623 dac~;
#X obj 163 581 hip~ 5;
#N canvas 0 50 450 250 (subpatch) 0;
#X array \$0-view 4800 float 0;
#X coords 0 1 4800 -1 840 493 1;
#X restore 101 239 graph;
#X obj 719 387 loadbang;
#X obj 719 408 t b b;
#X obj 719 465 metro 100;
#X obj 719 486 tabwrite~ \$0-view;
#X msg 751 429 \; pd dsp 1;
#X obj 787 465 catch~ \$0-view;
#X obj 625 581 throw~ \$0-view;
#X obj 719 518 phasor~ 0.0125;
#X obj 441 497 noise~;
#X obj 441 539 samphold~;
#X obj 719 539 *~ 256;
#X obj 163 602 *~ 0.25;
#X obj 162 445 phasor~ 0.123;
#X obj 162 466 *~ 58723;
#X obj 441 518 *~ 133;
#X obj 501 485 expr~ $v1%7000/7640;
#X obj 163 560 expr~ (($v1/3*(sin($v1%144/2032125)*$v2))/($v1/$v2%$v3)%2*2-1) \;, f 80;
#X connect 1 0 14 0;
#X connect 3 0 4 0;
#X connect 4 0 5 0;
#X connect 4 1 7 0;
#X connect 5 0 6 0;
#X connect 8 0 6 0;
#X connect 10 0 13 0;
#X connect 11 0 17 0;
#X connect 12 0 19 1;
#X connect 13 0 19 2;
#X connect 14 0 0 0;
#X connect 14 0 0 1;
#X connect 15 0 16 0;
#X connect 16 0 18 0;
#X connect 16 0 19 0;
#X connect 17 0 12 0;
#X connect 18 0 12 1;
#X connect 19 0 9 0;
#X connect 19 0 1 0;
