#N canvas 1361 104 800 768 12;
#X obj 81 463 hip~ 5;
#X obj 81 484 dac~;
#X obj 81 361 *~ 65536;
#X obj 81 340 phasor~ 0.125;
#X obj 81 319 +~ 0.01;
#X obj 585 400 loadbang;
#X obj 585 421 t b b;
#X msg 653 427 \; pd dsp 1;
#X obj 585 442 metro 100;
#X obj 585 463 tabwrite~ \$0-view;
#N canvas 0 50 450 250 (subpatch) 0;
#X array \$0-view 4800 float 0;
#X coords 0 1 4800 -1 700 300 1 0 0;
#X restore 50 231 graph;
#X obj 81 298 pow~ 2;
#X obj 81 277 phasor~ 0.0125;
#X obj 81 382 expr~ ((((($v1/(($v1>32768)+1))/(($v1>16384)+1))<<($v1/16384%4))/($v1/1024%3+1))*(($v1/2048%3+1))/($v1/8192%3+1)<<(($v1/512%7+1)/1000%8+($v1/1024%7)))%100/100*(pow((1-($v1%1000/1000))
\, (sin($v1>>($v1/4096%3))+1.5)))*0.9, f 67;
#X connect 0 0 1 0;
#X connect 0 0 1 1;
#X connect 2 0 13 0;
#X connect 3 0 2 0;
#X connect 4 0 3 0;
#X connect 5 0 6 0;
#X connect 6 0 8 0;
#X connect 6 1 7 0;
#X connect 8 0 9 0;
#X connect 11 0 4 0;
#X connect 12 0 11 0;
#X connect 13 0 0 0;
#X connect 13 0 9 0;
