#N canvas 926 0 1041 974 12;
#X obj 162 664 dac~;
#X obj 162 622 hip~ 5;
#N canvas 0 50 450 250 (subpatch) 0;
#X array \$0-view 4800 float 0;
#X coords 0 1 4800 -1 840 493 1;
#X restore 100 238 graph;
#X obj 718 406 loadbang;
#X obj 718 427 t b b;
#X obj 718 484 metro 100;
#X obj 718 505 tabwrite~ \$0-view;
#X msg 750 448 \; pd dsp 1;
#X obj 786 484 catch~ \$0-view;
#X obj 624 622 throw~ \$0-view;
#X obj 718 559 phasor~ 0.0125;
#X obj 440 496 noise~;
#X obj 440 580 samphold~;
#X obj 500 484 expr~ $v1%8002/3764;
#X obj 718 580 *~ 256;
#X obj 162 643 *~ 0.25;
#X obj 161 444 phasor~ 0.123;
#X obj 161 465 *~ 58723;
#X obj 458 517 phasor~ 0.0166667;
#X obj 440 559 *~;
#X obj 162 601 expr~ (($v1/3*(cos($v1%123/202232)*$v2))/($v1/$v2%$v3)%2*2-1) \;, f 80;
#X obj 458 538 *~ 7341;
#X connect 1 0 15 0;
#X connect 3 0 4 0;
#X connect 4 0 5 0;
#X connect 4 1 7 0;
#X connect 5 0 6 0;
#X connect 8 0 6 0;
#X connect 10 0 14 0;
#X connect 11 0 19 0;
#X connect 12 0 20 1;
#X connect 13 0 12 1;
#X connect 14 0 20 2;
#X connect 15 0 0 0;
#X connect 15 0 0 1;
#X connect 16 0 17 0;
#X connect 17 0 13 0;
#X connect 17 0 20 0;
#X connect 18 0 21 0;
#X connect 19 0 12 0;
#X connect 20 0 9 0;
#X connect 20 0 1 0;
#X connect 21 0 19 1;
