#N canvas 894 0 1074 995 10;
#X obj 129 309 f;
#X obj 152 309 + 1;
#X obj 274 461 *~;
#X msg 297 442 1 \, 0 50;
#X obj 297 461 line~;
#X obj 358 461 *~;
#X obj 381 461 line~;
#X obj 358 423 osc~ 600;
#X obj 190 461 *~;
#X obj 213 461 line~;
#X obj 190 423 osc~ 900;
#X obj 274 423 osc~ 800;
#X obj 190 480 *~ 0.2;
#X obj 274 480 *~ 0.2;
#X obj 358 480 *~ 0.2;
#X obj 376 731 dac~;
#X obj 100 461 *~;
#X obj 129 461 line~;
#X obj 100 423 osc~ 1200;
#X obj 442 461 *~;
#X obj 465 461 line~;
#X obj 442 480 *~ 0.2;
#X obj 581 308 f;
#X obj 604 308 + 1;
#X obj 581 365 change;
#X obj 725 460 *~;
#X msg 748 441 1 \, 0 50;
#X obj 748 460 line~;
#X obj 808 460 *~;
#X obj 831 460 line~;
#X obj 642 460 *~;
#X obj 665 460 line~;
#X obj 642 479 *~ 0.2;
#X obj 725 479 *~ 0.2;
#X obj 808 479 *~ 0.2;
#X obj 552 460 *~;
#X obj 581 460 line~;
#X obj 552 479 *~ 0.2;
#X obj 636 365 change;
#X obj 691 365 change;
#X obj 746 365 change;
#X obj 636 346 >> 8;
#X obj 691 346 >> 9;
#X obj 746 346 >> 11;
#X obj 806 365 change;
#X obj 806 346 >> 12;
#X obj 892 460 *~;
#X obj 915 460 line~;
#X msg 213 442 1 \, 0 30;
#X obj 129 252 loadbang;
#X obj 174 575 delwrite~ \$0-delL 1000;
#X obj 733 575 delwrite~ \$0-delR 1000;
#X obj 581 327 t f f f f f;
#X obj 129 366 change;
#X obj 184 366 change;
#X obj 239 366 change;
#X obj 294 366 change;
#X obj 354 366 change;
#X obj 184 347 >> 9;
#X obj 239 347 >> 10;
#X obj 294 347 >> 12;
#X obj 354 347 >> 13;
#X obj 174 594 vd~ \$0-delL 700;
#X obj 733 594 vd~ \$0-delR 750;
#X obj 174 613 lop~ 3200;
#X obj 733 613 lop~ 4000;
#X obj 415 366 change;
#X obj 129 328 t f f f f f f;
#X obj 416 519 bang;
#X obj 416 576 t f f;
#X obj 443 595 + 800;
#X obj 581 346 >> 7;
#X obj 129 347 >> 8;
#X obj 415 347 >> 10;
#X obj 416 538 random 4000;
#X obj 416 557 + 500;
#X obj 174 632 *~ 0.95;
#X obj 733 632 *~ 0.95;
#X obj 129 290 metro 2.09263;
#X obj 581 289 metro 2.03804;
#X msg 892 289 \; pd dsp 1;
#X obj 606 693 loadbang;
#X obj 606 731 tabwrite~ \$0-view;
#X obj 100 656 +~;
#X obj 893 656 +~;
#N canvas 1055 443 450 250 (subpatch) 0;
#X array \$0-view 4800 float 0;
#X coords 0 1 4799 -1 956 551 1 0 0;
#X restore 59 225 graph;
#X obj 129 271 t b b b;
#X obj 376 674 expr~ tanh($v1);
#X obj 376 712 clip~ -1 1;
#X obj 606 712 metro 100;
#X msg 665 441 1 \, 0 200;
#X obj 808 422 osc~ 606;
#X obj 892 422 osc~ 303;
#X obj 642 422 osc~ 909;
#X obj 725 422 osc~ 808;
#X msg 581 441 1 \, 0 70;
#X obj 552 422 osc~ 1200;
#X obj 100 480 *~ 0.1;
#X msg 381 442 1 \, 0 120;
#X obj 376 693 lop~ 7777;
#X msg 129 442 1 \, 0 555;
#X obj 442 423 osc~ 100;
#X msg 465 442 1 \, 0 9999;
#X msg 915 441 1 \, 0 3030;
#X msg 831 441 1 \, 0 222;
#X obj 892 479 *~ 0.15;
#X obj 491 674 expr~ tanh($v1);
#X obj 491 712 clip~ -1 1;
#X obj 491 693 lop~ 7777;
#X obj 100 556 *~ 1;
#X obj 892 556 *~ 1;
#X connect 0 0 1 0;
#X connect 0 0 67 0;
#X connect 1 0 0 1;
#X connect 2 0 13 0;
#X connect 3 0 4 0;
#X connect 4 0 2 1;
#X connect 5 0 14 0;
#X connect 6 0 5 1;
#X connect 7 0 5 0;
#X connect 8 0 12 0;
#X connect 9 0 8 1;
#X connect 10 0 8 0;
#X connect 11 0 2 0;
#X connect 12 0 109 0;
#X connect 13 0 109 0;
#X connect 14 0 109 0;
#X connect 16 0 97 0;
#X connect 17 0 16 1;
#X connect 18 0 16 0;
#X connect 19 0 21 0;
#X connect 20 0 19 1;
#X connect 21 0 109 0;
#X connect 22 0 23 0;
#X connect 22 0 52 0;
#X connect 23 0 22 1;
#X connect 24 0 95 0;
#X connect 25 0 33 0;
#X connect 26 0 27 0;
#X connect 27 0 25 1;
#X connect 28 0 34 0;
#X connect 29 0 28 1;
#X connect 30 0 32 0;
#X connect 31 0 30 1;
#X connect 32 0 110 0;
#X connect 33 0 110 0;
#X connect 34 0 110 0;
#X connect 35 0 37 0;
#X connect 36 0 35 1;
#X connect 37 0 110 0;
#X connect 38 0 90 0;
#X connect 39 0 26 0;
#X connect 40 0 104 0;
#X connect 41 0 38 0;
#X connect 42 0 39 0;
#X connect 43 0 40 0;
#X connect 44 0 103 0;
#X connect 45 0 44 0;
#X connect 46 0 105 0;
#X connect 47 0 46 1;
#X connect 48 0 9 0;
#X connect 49 0 86 0;
#X connect 52 0 71 0;
#X connect 52 1 41 0;
#X connect 52 2 42 0;
#X connect 52 3 43 0;
#X connect 52 4 45 0;
#X connect 53 0 100 0;
#X connect 54 0 48 0;
#X connect 55 0 3 0;
#X connect 56 0 98 0;
#X connect 57 0 102 0;
#X connect 58 0 54 0;
#X connect 59 0 55 0;
#X connect 60 0 56 0;
#X connect 61 0 57 0;
#X connect 62 0 64 0;
#X connect 62 0 83 1;
#X connect 63 0 65 0;
#X connect 63 0 84 0;
#X connect 64 0 76 0;
#X connect 65 0 77 0;
#X connect 66 0 68 0;
#X connect 67 0 72 0;
#X connect 67 1 58 0;
#X connect 67 2 59 0;
#X connect 67 3 60 0;
#X connect 67 4 61 0;
#X connect 67 5 73 0;
#X connect 68 0 74 0;
#X connect 69 0 64 1;
#X connect 69 1 70 0;
#X connect 70 0 65 1;
#X connect 71 0 24 0;
#X connect 72 0 53 0;
#X connect 73 0 66 0;
#X connect 74 0 75 0;
#X connect 75 0 69 0;
#X connect 76 0 50 0;
#X connect 77 0 51 0;
#X connect 78 0 0 0;
#X connect 79 0 22 0;
#X connect 81 0 89 0;
#X connect 83 0 87 0;
#X connect 84 0 106 0;
#X connect 86 0 78 0;
#X connect 86 1 79 0;
#X connect 86 2 80 0;
#X connect 87 0 99 0;
#X connect 88 0 82 0;
#X connect 88 0 15 0;
#X connect 89 0 82 0;
#X connect 90 0 31 0;
#X connect 91 0 28 0;
#X connect 92 0 46 0;
#X connect 93 0 30 0;
#X connect 94 0 25 0;
#X connect 95 0 36 0;
#X connect 96 0 35 0;
#X connect 97 0 109 0;
#X connect 98 0 6 0;
#X connect 99 0 88 0;
#X connect 100 0 17 0;
#X connect 101 0 19 0;
#X connect 102 0 20 0;
#X connect 103 0 47 0;
#X connect 104 0 29 0;
#X connect 105 0 110 0;
#X connect 106 0 108 0;
#X connect 107 0 82 0;
#X connect 107 0 15 1;
#X connect 108 0 107 0;
#X connect 109 0 50 0;
#X connect 109 0 83 0;
#X connect 110 0 51 0;
#X connect 110 0 84 0;
