#N canvas 634 21 989 910 12;
#X obj 329 471 *~;
#X obj 347 450 vline~;
#X obj 329 601 dac~;
#X obj 355 504 delwrite~ \$0-del 1000;
#X obj 550 517 vd~ \$0-del;
#X obj 550 345 *~ 0.5;
#X obj 550 366 +~ 0.5;
#X obj 550 398 *~;
#X obj 655 337 *~ 0.5;
#X obj 655 358 +~ 0.5;
#X obj 655 379 *~ 1000;
#X obj 655 476 *~ 0.5;
#X obj 655 497 +~ 0.5;
#X obj 550 538 *~;
#X obj 347 366 rzero~ 0.999;
#X obj 347 324 phasor~ 2;
#X obj 347 387 threshold~ 0.9 0 0.2 0;
#X msg 347 429 1 1 0 \, 0 20 10;
#X obj 347 345 *~ -1;
#X obj 347 408 t b b;
#X obj 347 282 random 10;
#X obj 347 303 + 1;
#X obj 550 324 osc~ 0.1;
#X obj 655 316 osc~ 0.2;
#X obj 251 450 *~ 0.5;
#X obj 655 455 osc~ 0.075;
#X obj 655 518 *~ 0.99;
#X obj 251 408 +~ 30;
#X obj 550 559 lop~ 2000;
#X obj 550 580 lop~ 2000;
#X obj 251 387 *~ 4000;
#X obj 251 429 osc~ 500;
#X obj 459 559 loadbang;
#X msg 655 575 \; pd dsp 1;
#X obj 459 580 metro 100;
#X obj 459 601 tabwrite~ \$0-view;
#N canvas 0 50 450 250 (subpatch) 0;
#X array \$0-view 4800 float 0;
#X coords 0 1 4800 -1 520 380 1 0 0;
#X restore 230 261 graph;
#X obj 655 554 loadbang;
#X obj 329 559 expr~ tanh($v1);
#X obj 329 580 clip~ -1 1;
#X obj 329 538 *~ 1;
#X connect 0 0 3 0;
#X connect 0 0 40 0;
#X connect 1 0 0 1;
#X connect 4 0 13 0;
#X connect 4 0 40 0;
#X connect 5 0 6 0;
#X connect 6 0 7 0;
#X connect 6 0 30 0;
#X connect 7 0 4 0;
#X connect 8 0 9 0;
#X connect 9 0 10 0;
#X connect 10 0 7 1;
#X connect 11 0 12 0;
#X connect 12 0 26 0;
#X connect 13 0 28 0;
#X connect 14 0 16 0;
#X connect 15 0 18 0;
#X connect 16 0 19 0;
#X connect 17 0 1 0;
#X connect 18 0 14 0;
#X connect 19 0 17 0;
#X connect 19 1 20 0;
#X connect 20 0 21 0;
#X connect 21 0 15 0;
#X connect 22 0 5 0;
#X connect 23 0 8 0;
#X connect 24 0 0 0;
#X connect 25 0 11 0;
#X connect 26 0 13 1;
#X connect 27 0 31 0;
#X connect 28 0 29 0;
#X connect 29 0 3 0;
#X connect 30 0 27 0;
#X connect 31 0 24 0;
#X connect 32 0 34 0;
#X connect 34 0 35 0;
#X connect 37 0 33 0;
#X connect 38 0 39 0;
#X connect 39 0 2 0;
#X connect 39 0 2 1;
#X connect 39 0 35 0;
#X connect 40 0 38 0;
