#N canvas 350 155 800 768 12;
#N canvas 0 50 450 250 (subpatch) 0;
#X array \$0-view 4800 float 0;
#X coords 0 1 4800 -1 500 700 1 0 0;
#X restore 147 35 graph;
#X obj 440 646 metro 100;
#X obj 440 671 tabwrite~ \$0-view;
#X obj 383 596 catch~ \$0-sum;
#X obj 383 621 *~ 1;
#X obj 383 676 dac~;
#X obj 175 687 throw~ \$0-sum;
#X obj 175 505 +~;
#X obj 175 530 cos~;
#X obj 175 555 *~;
#X obj 175 480 *~ 1;
#X obj 174 617 expr~ atan($v1);
#X obj 383 648 hip~ 5;
#X obj 372 477 +~;
#X obj 372 502 cos~;
#X obj 371 451 *~ 1;
#X obj 371 426 phasor~ 2;
#X obj 283 441 +~;
#X obj 283 466 cos~;
#X obj 283 491 *~;
#X obj 283 416 *~ 1;
#X obj 283 391 phasor~ 2;
#X obj 372 527 *~;
#X obj 451 472 +~;
#X obj 451 497 cos~;
#X obj 451 447 *~ 1;
#X obj 451 422 phasor~ 2;
#X obj 451 522 *~ 1;
#X obj 275 188 phasor~ 2;
#X obj 273 216 *~ 1;
#X obj 463 217 *~ 3;
#X obj 523 217 *~ 7;
#X obj 273 241 wrap~;
#X obj 463 242 wrap~;
#X obj 523 242 wrap~;
#X obj 196 273 samphold~;
#X obj 419 297 samphold~;
#X obj 515 309 samphold~;
#X obj 190 248 noise~;
#X obj 417 274 noise~;
#X obj 520 279 noise~;
#X obj 196 298 *~ 100;
#X obj 196 323 +~ 20;
#X obj 420 320 *~ 10;
#X obj 420 345 +~ 1;
#X obj 518 364 +~ 100;
#X obj 349 243 wrap~;
#X obj 313 297 samphold~;
#X obj 311 274 noise~;
#X obj 350 223 *~ 1.575;
#X obj 314 345 +~ 2;
#X obj 314 320 *~ 50;
#X obj 175 455 phasor~ 87;
#X msg 366 108 0;
#X obj 364 57 loadbang;
#X msg 404 108 \; pd dsp 1;
#X obj 275 110 phasor~ 0.1;
#X obj 174 586 *~ 0.8;
#X obj 364 82 t b b b;
#X obj 275 165 *~ 2;
#X obj 516 340 *~ 6733;
#X obj 174 643 *~ 1;
#X connect 1 0 2 0;
#X connect 3 0 2 0;
#X connect 3 0 4 0;
#X connect 4 0 12 0;
#X connect 7 0 8 0;
#X connect 8 0 9 0;
#X connect 9 0 57 0;
#X connect 10 0 7 0;
#X connect 11 0 61 0;
#X connect 12 0 5 0;
#X connect 12 0 5 1;
#X connect 13 0 14 0;
#X connect 14 0 22 0;
#X connect 15 0 13 0;
#X connect 16 0 15 0;
#X connect 17 0 18 0;
#X connect 18 0 19 0;
#X connect 19 0 7 1;
#X connect 20 0 17 0;
#X connect 21 0 20 0;
#X connect 22 0 9 1;
#X connect 23 0 24 0;
#X connect 24 0 27 0;
#X connect 25 0 23 0;
#X connect 26 0 25 0;
#X connect 27 0 22 1;
#X connect 28 0 29 0;
#X connect 28 0 31 0;
#X connect 28 0 30 0;
#X connect 28 0 49 0;
#X connect 29 0 32 0;
#X connect 30 0 33 0;
#X connect 31 0 34 0;
#X connect 32 0 35 1;
#X connect 33 0 36 1;
#X connect 34 0 37 1;
#X connect 35 0 41 0;
#X connect 36 0 43 0;
#X connect 37 0 60 0;
#X connect 38 0 35 0;
#X connect 39 0 36 0;
#X connect 40 0 37 0;
#X connect 41 0 42 0;
#X connect 42 0 21 0;
#X connect 43 0 44 0;
#X connect 44 0 16 0;
#X connect 45 0 26 0;
#X connect 46 0 47 1;
#X connect 47 0 51 0;
#X connect 48 0 47 0;
#X connect 49 0 46 0;
#X connect 50 0 19 1;
#X connect 51 0 50 0;
#X connect 52 0 10 0;
#X connect 53 0 28 1;
#X connect 53 0 56 1;
#X connect 54 0 58 0;
#X connect 56 0 59 0;
#X connect 57 0 11 0;
#X connect 58 0 53 0;
#X connect 58 1 55 0;
#X connect 58 2 1 0;
#X connect 59 0 28 0;
#X connect 60 0 45 0;
#X connect 61 0 6 0;
