#N canvas 223 27 1080 1048 12;
#X obj 69 651 vline~;
#X obj 51 672 *~;
#X floatatom 51 477 5 0 0 0 - - -;
#X obj 51 531 mtof;
#X floatatom 51 556 8 0 0 0 - - -;
#X obj 51 586 osc~;
#X obj 51 806 dac~;
#X obj 51 504 t f b;
#X obj 51 322 f;
#X obj 51 347 % 8;
#X obj 81 322 + 1;
#X obj 51 372 array get \$0-notes;
#N canvas 0 50 450 250 (subpatch) 0;
#X array \$0-notes 8 float 3;
#A 0 32.2286 24 8.91429 29.1428 38.0571 19.5429 12.3429 5.4857;
#X coords 0 48 8 0 200 140 1 0 0;
#X restore 817 682 graph;
#X obj 51 397 int;
#X obj 51 422 + 24;
#X floatatom 90 397 5 0 0 0 - - -;
#X obj 90 421 * 12;
#X floatatom 111 277 5 0 0 0 - - -;
#X obj 389 651 vline~;
#X obj 371 672 *~;
#X floatatom 371 477 5 0 0 0 - - -;
#X obj 371 531 mtof;
#X floatatom 371 556 8 0 0 0 - - -;
#X obj 371 586 osc~;
#X obj 371 806 dac~;
#X obj 371 504 t f b;
#X obj 371 322 f;
#X obj 371 347 % 8;
#X obj 401 322 + 1;
#X obj 371 372 array get \$0-notes;
#X obj 371 397 int;
#X obj 371 422 + 24;
#X floatatom 410 397 5 0 0 0 - - -;
#X obj 410 421 * 12;
#X floatatom 431 277 5 0 0 0 - - -;
#X obj 709 651 vline~;
#X obj 691 672 *~;
#X floatatom 691 447 5 0 0 0 - - -;
#X obj 691 501 mtof;
#X floatatom 691 526 8 0 0 0 - - -;
#X obj 691 586 osc~;
#X obj 691 806 dac~;
#X obj 691 474 t f b;
#X obj 691 322 f;
#X obj 691 347 % 8;
#X obj 721 322 + 1;
#X obj 691 372 array get \$0-notes;
#X obj 691 397 int;
#X obj 691 422 + 24;
#X floatatom 730 397 5 0 0 0 - - -;
#X obj 730 421 * 12;
#X floatatom 751 277 5 0 0 0 - - -;
#X obj 51 297 metro 100;
#X obj 371 297 metro 198;
#X obj 222 257 * 100;
#X floatatom 222 216 5 0 0 0 - - -;
#X obj 222 236 t f f f;
#X obj 262 257 * 198;
#X obj 90 806 *~ 0.7;
#X obj 740 806 *~ 0.7;
#X obj 186 302 r \$0-rand;
#X obj 186 323 random 5;
#X obj 286 302 r \$0-rand;
#X obj 286 323 random 5;
#X obj 764 305 r \$0-rand;
#X obj 764 326 random 5;
#X obj 855 312 s \$0-rand;
#X obj 855 296 bng 15 250 50 0 empty empty empty 17 7 0 10 -262144
-1 -1;
#X obj 691 297 metro 95;
#X obj 769 516 /;
#X floatatom 769 541 10 0 0 0 - - -;
#X msg 769 491 3 2;
#X msg 812 491 45 32;
#X msg 872 491 4 3;
#X msg 912 491 5 4;
#X msg 952 491 6 5;
#X msg 992 491 16 15;
#X obj 691 560 * 1.5;
#X obj 470 491 f;
#X obj 500 491 + 1;
#X floatatom 537 450 5 0 0 0 - - -;
#X floatatom 470 575 5 0 0 0 - - -;
#X obj 470 512 % 100;
#X obj 470 533 expr sin(($f1/100)*6.28318);
#X obj 470 554 expr $f1*2+3;
#X obj 470 470 metro 1000;
#X obj 51 281 tgl 15 0 empty \$0-start empty 17 7 0 10 -262144 -1 -1
1 1;
#X obj 371 281 tgl 15 0 empty \$0-start empty 17 7 0 10 -262144 -1
-1 1 1;
#X obj 691 281 tgl 15 0 empty \$0-start empty 17 7 0 10 -262144 -1
-1 1 1;
#X obj 855 259 tgl 15 0 empty \$0-start empty 17 7 0 10 -262144 -1
-1 1 1;
#X obj 470 454 tgl 15 0 empty \$0-start empty 17 7 0 10 -262144 -1
-1 1 1;
#X obj 855 275 metro 6283.18;
#X obj 302 257 * 102;
#X msg 389 626 0 \, 0.5 10 0 \, 1 20 10 \, 0.3 10 20 \, 0 15 50;
#X msg 709 626 0 \, 0.5 10 0 \, 1 20 10 \, 0.3 10 20 \, 0 15 50;
#X obj 186 344 + 2;
#X obj 286 344 + 2;
#X obj 764 347 + 2;
#X obj 119 605 f;
#X msg 69 626 0 \, 0.5 10 0 \, 1 20 10 \, 0.3 10 20 \, 0 15 \$1;
#X obj 136 305 - 50;
#X obj 508 770 metro 100;
#X obj 508 791 tabwrite~ \$0-view;
#X obj 371 771 *~ 1;
#N canvas 0 50 450 250 (subpatch) 0;
#X array \$0-view 4800 float 0;
#X coords 0 1 4800 -1 1000 650 1 0 0;
#X restore 40 198 graph;
#X obj 508 749 r \$0-start;
#X obj 190 475 loadbang;
#X obj 190 533 f 1;
#X obj 190 554 s \$0-start;
#X obj 190 496 t b b;
#X msg 244 516 \; pd dsp 1;
#X obj 855 349 random 100;
#X obj 855 391 b;
#X obj 855 412 random 6;
#X obj 855 433 sel 0 1 2 3 4 5;
#X obj 371 697 *~ 0.7;
#X obj 51 724 hip~ 10;
#X obj 371 724 hip~ 10;
#X obj 691 724 hip~ 10;
#X obj 51 697 *~ 0.6;
#X obj 855 370 moses 33;
#X obj 691 697 *~ 0.7;
#X obj 51 771 *~ 0.85;
#X obj 691 771 *~ 0.85;
#X connect 0 0 1 1;
#X connect 1 0 119 0;
#X connect 2 0 7 0;
#X connect 3 0 4 0;
#X connect 4 0 5 0;
#X connect 5 0 1 0;
#X connect 7 0 3 0;
#X connect 7 1 98 0;
#X connect 8 0 9 0;
#X connect 9 0 10 0;
#X connect 9 0 11 0;
#X connect 10 0 8 1;
#X connect 11 0 13 0;
#X connect 13 0 14 0;
#X connect 14 0 2 0;
#X connect 15 0 16 0;
#X connect 16 0 14 1;
#X connect 17 0 52 1;
#X connect 17 0 100 0;
#X connect 18 0 19 1;
#X connect 19 0 115 0;
#X connect 20 0 25 0;
#X connect 21 0 22 0;
#X connect 22 0 23 0;
#X connect 23 0 19 0;
#X connect 25 0 21 0;
#X connect 25 1 93 0;
#X connect 26 0 27 0;
#X connect 27 0 28 0;
#X connect 27 0 29 0;
#X connect 28 0 26 1;
#X connect 29 0 30 0;
#X connect 30 0 31 0;
#X connect 31 0 20 0;
#X connect 32 0 33 0;
#X connect 33 0 31 1;
#X connect 34 0 53 1;
#X connect 35 0 36 1;
#X connect 36 0 121 0;
#X connect 37 0 42 0;
#X connect 38 0 39 0;
#X connect 39 0 77 0;
#X connect 40 0 36 0;
#X connect 42 0 38 0;
#X connect 42 1 94 0;
#X connect 43 0 44 0;
#X connect 44 0 45 0;
#X connect 44 0 46 0;
#X connect 45 0 43 1;
#X connect 46 0 47 0;
#X connect 47 0 48 0;
#X connect 48 0 37 0;
#X connect 49 0 50 0;
#X connect 50 0 48 1;
#X connect 51 0 68 1;
#X connect 52 0 8 0;
#X connect 53 0 26 0;
#X connect 54 0 17 0;
#X connect 55 0 56 0;
#X connect 56 0 54 0;
#X connect 56 1 57 0;
#X connect 56 2 92 0;
#X connect 57 0 34 0;
#X connect 58 0 6 1;
#X connect 59 0 41 0;
#X connect 60 0 61 0;
#X connect 61 0 95 0;
#X connect 62 0 63 0;
#X connect 63 0 96 0;
#X connect 64 0 65 0;
#X connect 64 0 111 0;
#X connect 65 0 97 0;
#X connect 67 0 66 0;
#X connect 68 0 43 0;
#X connect 69 0 70 0;
#X connect 70 0 77 1;
#X connect 71 0 69 0;
#X connect 72 0 69 0;
#X connect 73 0 69 0;
#X connect 74 0 69 0;
#X connect 75 0 69 0;
#X connect 76 0 69 0;
#X connect 77 0 40 0;
#X connect 78 0 82 0;
#X connect 79 0 78 1;
#X connect 80 0 85 1;
#X connect 81 0 55 0;
#X connect 82 0 79 0;
#X connect 82 0 83 0;
#X connect 83 0 84 0;
#X connect 84 0 81 0;
#X connect 85 0 78 0;
#X connect 86 0 52 0;
#X connect 87 0 53 0;
#X connect 88 0 68 0;
#X connect 89 0 91 0;
#X connect 90 0 85 0;
#X connect 91 0 67 0;
#X connect 92 0 51 0;
#X connect 93 0 18 0;
#X connect 94 0 35 0;
#X connect 95 0 15 0;
#X connect 96 0 32 0;
#X connect 97 0 49 0;
#X connect 98 0 99 0;
#X connect 99 0 0 0;
#X connect 100 0 98 1;
#X connect 101 0 102 0;
#X connect 103 0 24 0;
#X connect 103 0 24 1;
#X connect 103 0 102 0;
#X connect 105 0 101 0;
#X connect 106 0 109 0;
#X connect 107 0 108 0;
#X connect 109 0 107 0;
#X connect 109 1 110 0;
#X connect 111 0 120 0;
#X connect 112 0 113 0;
#X connect 113 0 114 0;
#X connect 114 0 71 0;
#X connect 114 1 72 0;
#X connect 114 2 73 0;
#X connect 114 3 74 0;
#X connect 114 4 75 0;
#X connect 114 5 76 0;
#X connect 115 0 117 0;
#X connect 116 0 122 0;
#X connect 117 0 103 0;
#X connect 118 0 123 0;
#X connect 119 0 116 0;
#X connect 120 0 112 0;
#X connect 121 0 118 0;
#X connect 122 0 6 0;
#X connect 122 0 58 0;
#X connect 122 0 102 0;
#X connect 123 0 41 1;
#X connect 123 0 59 0;
#X connect 123 0 102 0;
