#N canvas 208 27 1080 1048 12;
#X obj 69 441 *~ 0.2;
#X obj 69 491 *~;
#X obj 69 606 dac~;
#X obj 189 379 osc~;
#X obj 196 450 lop~ 500;
#X obj 285 520 *~ 0.5;
#X obj 196 422 expr~ if($v1>$v2 \, 1 \, 0);
#X obj 304 462 osc~;
#X obj 285 545 +~;
#X obj 304 487 *~ 0.5;
#X obj 386 491 *~ 0.5;
#X obj 386 516 *~ 0.5;
#X obj 386 541 *~ 10000;
#X obj 285 570 *~;
#X obj 69 466 vcf~ 8;
#X obj 69 546 hip~ 10;
#X obj 336 379 osc~;
#X obj 466 610 delwrite~ \$0-d1 10;
#X obj 466 635 delread~ \$0-d1 1;
#X obj 161 609 delwrite~ \$0-d2 10;
#X obj 161 634 delread~ \$0-d2 1;
#X obj 161 660 *~ 5;
#X obj 386 466 osc~ 100;
#X obj 312 660 *~ 5;
#X obj 312 609 delwrite~ \$0-d3 10;
#X obj 312 634 delread~ \$0-d3 1;
#X obj 335 351 +~;
#X obj 557 464 samphold~;
#X obj 578 442 expr~ if($v1>0 \, 1 \, 0);
#X obj 557 485 *~ 0.5;
#X obj 557 506 +~ 0.5;
#X obj 557 527 *~ 1000;
#X obj 544 339 samphold~;
#X obj 565 317 expr~ if($v1>0 \, 1 \, 0);
#X obj 544 360 *~ 0.5;
#X obj 544 381 +~ 0.5;
#X obj 544 402 *~ 10;
#X msg 771 592 5 5 0.5;
#X obj 466 660 *~ 0.5;
#X obj 771 617 s \$0-preset;
#X obj 622 614 r \$0-preset;
#X obj 622 640 unpack f f f;
#X msg 771 550 135 75 2;
#X msg 771 571 567 123 0.1;
#X msg 871 550 0.1 10000 0.1;
#X msg 871 571 1.99 368.2 386.1;
#X obj 79 314 noise~;
#X msg 871 592 14.02 100.06 510.02;
#X obj 771 309 loadbang;
#X obj 771 334 t b b;
#X obj 771 359 f 1;
#X obj 771 384 metro 500;
#X obj 771 409 random 100;
#X obj 771 434 moses 33;
#X obj 771 459 t b;
#X obj 771 484 random 6;
#X obj 771 509 sel 0 1 2 3 4 5;
#X msg 853 354 \; pd dsp 1;
#X obj 749 673 metro 100;
#X obj 749 698 tabwrite~ \$0-view;
#N canvas 0 50 450 250 (subpatch) 0;
#X array \$0-view 4800 float 0;
#X coords 0 1 4800 -1 1000 450 1 0 0;
#X restore 39 297 graph;
#X obj 748 653 tgl 15 0 empty empty empty 17 7 0 10 -262144 -1 -1 1
1;
#X obj 69 518 *~ 15;
#X connect 0 0 14 0;
#X connect 1 0 62 0;
#X connect 3 0 5 0;
#X connect 3 0 6 0;
#X connect 3 0 19 0;
#X connect 4 0 1 1;
#X connect 5 0 8 0;
#X connect 6 0 4 0;
#X connect 7 0 9 0;
#X connect 7 0 17 0;
#X connect 7 0 28 0;
#X connect 8 0 13 0;
#X connect 9 0 8 1;
#X connect 10 0 11 0;
#X connect 11 0 12 0;
#X connect 12 0 13 1;
#X connect 13 0 14 1;
#X connect 14 0 1 0;
#X connect 15 0 2 0;
#X connect 15 0 2 1;
#X connect 15 0 59 0;
#X connect 16 0 6 1;
#X connect 16 0 24 0;
#X connect 16 0 33 0;
#X connect 18 0 38 0;
#X connect 20 0 21 0;
#X connect 21 0 7 0;
#X connect 22 0 10 0;
#X connect 23 0 3 0;
#X connect 25 0 23 0;
#X connect 26 0 16 0;
#X connect 27 0 29 0;
#X connect 28 0 27 1;
#X connect 29 0 30 0;
#X connect 30 0 31 0;
#X connect 31 0 26 1;
#X connect 32 0 34 0;
#X connect 33 0 32 1;
#X connect 34 0 35 0;
#X connect 35 0 36 0;
#X connect 36 0 22 0;
#X connect 37 0 39 0;
#X connect 38 0 26 0;
#X connect 40 0 41 0;
#X connect 41 0 21 1;
#X connect 41 1 23 1;
#X connect 41 2 38 1;
#X connect 42 0 39 0;
#X connect 43 0 39 0;
#X connect 44 0 39 0;
#X connect 45 0 39 0;
#X connect 46 0 0 0;
#X connect 46 0 27 0;
#X connect 46 0 32 0;
#X connect 47 0 39 0;
#X connect 48 0 49 0;
#X connect 49 0 50 0;
#X connect 49 1 57 0;
#X connect 50 0 51 0;
#X connect 50 0 61 0;
#X connect 51 0 52 0;
#X connect 52 0 53 0;
#X connect 53 0 54 0;
#X connect 54 0 55 0;
#X connect 55 0 56 0;
#X connect 56 0 42 0;
#X connect 56 1 43 0;
#X connect 56 2 37 0;
#X connect 56 3 44 0;
#X connect 56 4 45 0;
#X connect 56 5 47 0;
#X connect 58 0 59 0;
#X connect 61 0 58 0;
#X connect 62 0 15 0;
