#N canvas 921 0 1040 961 12;
#X obj 174 457 *~;
#X obj 142 478 +~;
#X obj 142 499 osc~;
#X obj 174 436 osc~;
#X obj 174 415 * 0.98;
#X obj 142 394 t f f;
#X obj 248 478 vline~;
#X obj 142 520 *~;
#X obj 248 499 /~ 80000;
#X obj 248 342 tgl 30 0 empty empty empty 17 7 0 10 #fcfcfc #000000 #000000 0 1;
#X obj 248 373 metro 100;
#X obj 308 352 t f f;
#X obj 334 394 metro 100;
#X obj 394 373 * 0.75;
#X msg 280 248 370;
#X obj 664 457 *~;
#X obj 632 478 +~;
#X obj 632 499 osc~;
#X obj 664 436 osc~;
#X obj 664 415 * 0.98;
#X obj 632 394 t f f;
#X obj 632 520 *~;
#X obj 142 541 *~ 0.5;
#X obj 417 738 dac~;
#X obj 248 290 t b b;
#X obj 738 312 del 180;
#X obj 632 289 random 100;
#X obj 632 352 / 100;
#X obj 632 268 spigot;
#X obj 671 247 tgl 20 0 empty empty empty 17 7 0 10 #fcfcfc #000000 #000000 0 1;
#X obj 142 289 random 100;
#X obj 142 352 / 100;
#X obj 142 268 spigot;
#X obj 181 247 tgl 20 0 empty empty empty 17 7 0 10 #fcfcfc #000000 #000000 0 1;
#X obj 142 310 moses 20;
#X obj 298 290 * 2;
#X obj 324 290 / 2.05;
#X obj 142 373 * 100;
#X obj 632 373 * 100;
#X obj 248 436 pack 0 80000 0.3;
#X obj 248 415 t b;
#X msg 248 457 0 \, \$2 \$3 0 \, 0 \$3 \$3;
#X obj 738 478 vline~;
#X obj 738 499 /~ 80000;
#X obj 738 343 tgl 30 0 empty empty empty 17 7 0 10 #fcfcfc #000000 #000000 0 1;
#X obj 738 374 metro 100;
#X obj 798 353 t f f;
#X obj 824 395 metro 100;
#X obj 544 373 * 0.75;
#X obj 738 436 pack 0 80000 0.3;
#X obj 738 416 t b;
#X msg 738 457 0 \, \$2 \$3 0 \, 0 \$3 \$3;
#X msg 791 478 \$2;
#X msg 301 478 \$2;
#X msg 504 310 20 0.5 12000;
#X msg 504 205 773 5 10;
#X obj 750 395 del 200;
#X obj 280 269 t f f f f f;
#X obj 371 290 / 4;
#X obj 397 290 / 3.98;
#X obj 260 394 del 100;
#X obj 142 583 delwrite~ space1 1000;
#X obj 142 635 line~;
#X obj 142 614 pack 0 100;
#X obj 142 656 delread4~ space1;
#X obj 632 635 line~;
#X obj 632 614 pack 0 100;
#X obj 632 656 delread4~ space2;
#X obj 632 583 delwrite~ space2 1000;
#X obj 142 562 *~ 0;
#X obj 632 562 *~ 0;
#X obj 308 563 *~ 0;
#X obj 799 564 *~ 0;
#X obj 824 501 random 100;
#X obj 824 522 < 20;
#X obj 333 500 random 100;
#X obj 417 675 rev2~ 80 80 3000 80;
#X msg 504 289 1000 0.2 1000;
#X msg 504 268 30000 1 10;
#X obj 449 654 unpack f f f f;
#X msg 449 633 92 57 1000 12;
#X msg 449 591 90 100 8000 80;
#X obj 417 696 +~;
#X obj 142 331 t f f;
#X obj 632 310 moses 25;
#X obj 685 331 > 70;
#X obj 632 331 t f f;
#X obj 686 352 > 3;
#X obj 196 352 > 7;
#X obj 632 541 *~ 0.5;
#X obj 248 206 loadbang;
#X obj 504 415 unpack f f;
#X obj 556 696 +~;
#X obj 544 352 t f f;
#X obj 504 331 list split 2;
#X obj 333 521 < 20;
#X obj 195 331 > 50;
#X msg 449 612 95 90 5000 50;
#X obj 333 542 * 0.9;
#X obj 824 543 * 0.8;
#X msg 504 247 3000 0.8 10000;
#X msg 504 226 220 1 1205;
#X obj 426 435 f;
#X obj 452 435 + 1;
#X obj 426 498 random 6;
#X obj 504 184 sel 0 1 2 3 4 5;
#X obj 426 456 % 13;
#X obj 426 477 sel 0 7;
#X obj 449 570 sel 0 1 2;
#X msg 358 227 \; pd dsp 1;
#X obj 557 738 metro 100;
#X obj 557 759 tabwrite~ \$0-view;
#N canvas 0 50 450 250 (subpatch) 0;
#X array \$0-view 4800 float 0;
#X coords 0 1 4800 -1 830 700 1 0 0;
#X restore 105 132 graph;
#X obj 248 227 t b b b b b b b;
#X obj 417 717 expr~ tanh($v1);
#X obj 557 717 expr~ tanh($v1);
#X obj 452 738 clip~ -1 1;
#X obj 449 549 random 3;
#X connect 0 0 1 1;
#X connect 1 0 2 0;
#X connect 2 0 7 0;
#X connect 3 0 0 0;
#X connect 4 0 3 0;
#X connect 5 0 1 0;
#X connect 5 1 4 0;
#X connect 6 0 0 1;
#X connect 6 0 8 0;
#X connect 7 0 22 0;
#X connect 8 0 7 1;
#X connect 9 0 10 0;
#X connect 9 0 12 0;
#X connect 10 0 40 0;
#X connect 10 0 60 0;
#X connect 11 0 10 1;
#X connect 11 1 13 0;
#X connect 12 0 40 0;
#X connect 12 0 75 0;
#X connect 13 0 12 1;
#X connect 14 0 57 0;
#X connect 15 0 16 1;
#X connect 16 0 17 0;
#X connect 17 0 21 0;
#X connect 18 0 15 0;
#X connect 19 0 18 0;
#X connect 20 0 16 0;
#X connect 20 1 19 0;
#X connect 21 0 89 0;
#X connect 22 0 69 0;
#X connect 22 0 92 0;
#X connect 22 0 82 0;
#X connect 24 0 9 0;
#X connect 24 1 25 0;
#X connect 25 0 44 0;
#X connect 26 0 84 0;
#X connect 27 0 38 0;
#X connect 28 0 26 0;
#X connect 29 0 28 1;
#X connect 30 0 34 0;
#X connect 31 0 37 0;
#X connect 32 0 30 0;
#X connect 33 0 32 1;
#X connect 34 0 83 0;
#X connect 34 1 96 0;
#X connect 35 0 46 0;
#X connect 36 0 25 1;
#X connect 37 0 5 0;
#X connect 38 0 20 0;
#X connect 39 0 41 0;
#X connect 39 0 53 0;
#X connect 40 0 39 0;
#X connect 40 0 102 0;
#X connect 41 0 6 0;
#X connect 42 0 43 0;
#X connect 42 0 15 1;
#X connect 43 0 21 1;
#X connect 44 0 45 0;
#X connect 44 0 47 0;
#X connect 45 0 50 0;
#X connect 45 0 56 0;
#X connect 46 0 45 1;
#X connect 46 1 48 0;
#X connect 47 0 50 0;
#X connect 47 0 73 0;
#X connect 48 0 47 1;
#X connect 49 0 51 0;
#X connect 49 0 52 0;
#X connect 50 0 49 0;
#X connect 51 0 42 0;
#X connect 52 0 43 1;
#X connect 53 0 8 1;
#X connect 54 0 94 0;
#X connect 55 0 94 0;
#X connect 56 0 50 0;
#X connect 56 0 32 0;
#X connect 57 0 11 0;
#X connect 57 1 35 0;
#X connect 57 2 36 0;
#X connect 57 3 58 0;
#X connect 57 4 59 0;
#X connect 58 0 60 1;
#X connect 58 0 66 0;
#X connect 59 0 56 1;
#X connect 59 0 63 0;
#X connect 60 0 28 0;
#X connect 60 0 40 0;
#X connect 62 0 64 0;
#X connect 63 0 62 0;
#X connect 64 0 71 0;
#X connect 64 0 76 0;
#X connect 64 0 82 0;
#X connect 65 0 67 0;
#X connect 66 0 65 0;
#X connect 67 0 72 0;
#X connect 67 0 76 0;
#X connect 67 0 92 0;
#X connect 69 0 61 0;
#X connect 70 0 68 0;
#X connect 71 0 61 0;
#X connect 72 0 68 0;
#X connect 73 0 74 0;
#X connect 74 0 99 0;
#X connect 75 0 95 0;
#X connect 76 0 82 0;
#X connect 76 1 92 0;
#X connect 77 0 94 0;
#X connect 78 0 94 0;
#X connect 79 0 76 1;
#X connect 79 1 76 2;
#X connect 79 2 76 3;
#X connect 79 3 76 4;
#X connect 80 0 79 0;
#X connect 81 0 79 0;
#X connect 82 0 114 0;
#X connect 83 0 31 0;
#X connect 83 1 88 0;
#X connect 84 0 86 0;
#X connect 84 1 85 0;
#X connect 85 0 70 1;
#X connect 86 0 27 0;
#X connect 86 1 87 0;
#X connect 87 0 33 0;
#X connect 88 0 29 0;
#X connect 89 0 70 0;
#X connect 89 0 82 0;
#X connect 89 0 92 0;
#X connect 90 0 113 0;
#X connect 91 0 39 1;
#X connect 91 0 49 1;
#X connect 91 1 39 2;
#X connect 91 1 49 2;
#X connect 92 0 115 0;
#X connect 93 0 37 1;
#X connect 93 1 38 1;
#X connect 94 0 91 0;
#X connect 94 1 93 0;
#X connect 95 0 98 0;
#X connect 96 0 69 1;
#X connect 97 0 79 0;
#X connect 98 0 71 1;
#X connect 99 0 72 1;
#X connect 100 0 94 0;
#X connect 101 0 94 0;
#X connect 102 0 106 0;
#X connect 103 0 102 1;
#X connect 104 0 105 0;
#X connect 105 0 55 0;
#X connect 105 1 101 0;
#X connect 105 2 100 0;
#X connect 105 3 78 0;
#X connect 105 4 77 0;
#X connect 105 5 54 0;
#X connect 106 0 103 0;
#X connect 106 0 107 0;
#X connect 107 0 104 0;
#X connect 107 1 117 0;
#X connect 108 0 81 0;
#X connect 108 1 97 0;
#X connect 108 2 80 0;
#X connect 110 0 111 0;
#X connect 113 0 24 0;
#X connect 113 1 14 0;
#X connect 113 2 80 0;
#X connect 113 3 29 0;
#X connect 113 4 78 0;
#X connect 113 5 110 0;
#X connect 113 6 109 0;
#X connect 114 0 23 0;
#X connect 114 0 116 0;
#X connect 115 0 23 1;
#X connect 115 0 116 0;
#X connect 116 0 111 0;
#X connect 117 0 108 0;
