#N canvas 170 177 800 768 10;
#X obj 203 600 dac~;
#X obj 258 543 *~ 0.5;
#X obj 203 562 *~;
#X obj 435 600 delwrite~ d1 50;
#X obj 435 581 *~;
#X obj 469 486 phasor~ 1;
#X obj 469 505 *~ 10;
#X obj 258 486 *~ 100;
#X obj 335 506 phasor~ 1;
#X obj 335 525 *~ 10;
#X obj 203 400 mtof;
#X obj 260 438 / 4;
#X obj 203 419 t f f f f;
#X obj 237 438 / 2;
#X obj 258 505 phasor~;
#X obj 258 467 phasor~;
#X obj 335 449 sel 0 1 2 3;
#X obj 335 430 random 4;
#X obj 203 381 line;
#X obj 203 267 metro 2000;
#X obj 323 304 random 9;
#X obj 323 342 * 300;
#X msg 335 468 10;
#X msg 368 468 100;
#X msg 395 468 500;
#X msg 427 468 1750;
#X obj 203 286 t b b b;
#X obj 386 304 random 9;
#X obj 386 323 + 1;
#X obj 335 411 metro 100;
#X obj 386 342 * 100;
#X obj 323 323 + 10;
#X obj 469 524 phasor~ 1;
#X obj 538 505 random 10;
#X obj 268 362 < 33;
#X obj 268 381 sel 1;
#X obj 538 524 + 1;
#X obj 203 524 * 0.9;
#X obj 203 543 osc~;
#X obj 538 486 del 750;
#X obj 203 343 t f f;
#X obj 435 145 loadbang;
#X msg 513 170 \; pd dsp 1;
#X obj 454 183 metro 100;
#X obj 454 202 tabwrite~ \$0-view;
#N canvas 0 50 450 250 (subpatch) 0;
#X array \$0-view 4800 float 0;
#X coords 0 1 4800 -1 520 520 1 0 0;
#X restore 139 123 graph;
#X obj 435 164 t b b b;
#X obj 336 182 metro 2000;
#X obj 371 201 random 9;
#X obj 336 201 t b b;
#X obj 308 230 random 2;
#X obj 308 249 t f f;
#X obj 371 239 * 200;
#X obj 469 543 bp~ 100 1;
#X obj 371 220 + 1;
#X obj 203 305 random 77;
#X obj 203 581 *~ 0.9;
#X obj 203 362 pack 0 100;
#X obj 258 524 bp~ 7000 3;
#X obj 335 563 *~ 0.55;
#X obj 203 324 + 9;
#X obj 335 544 vd~ d1 10;
#X obj 469 562 *~ 0.75;
#X connect 1 0 2 1;
#X connect 2 0 3 0;
#X connect 2 0 56 0;
#X connect 4 0 3 0;
#X connect 5 0 6 0;
#X connect 6 0 32 0;
#X connect 7 0 14 0;
#X connect 8 0 9 0;
#X connect 9 0 61 0;
#X connect 10 0 12 0;
#X connect 11 0 9 1;
#X connect 12 0 37 0;
#X connect 12 1 15 0;
#X connect 12 2 13 0;
#X connect 12 3 11 0;
#X connect 13 0 8 0;
#X connect 14 0 58 0;
#X connect 15 0 7 0;
#X connect 16 0 22 0;
#X connect 16 1 23 0;
#X connect 16 2 24 0;
#X connect 16 3 25 0;
#X connect 17 0 16 0;
#X connect 18 0 10 0;
#X connect 19 0 26 0;
#X connect 20 0 31 0;
#X connect 21 0 19 1;
#X connect 22 0 7 1;
#X connect 23 0 7 1;
#X connect 24 0 7 1;
#X connect 25 0 7 1;
#X connect 26 0 55 0;
#X connect 26 1 20 0;
#X connect 26 2 27 0;
#X connect 27 0 28 0;
#X connect 28 0 30 0;
#X connect 29 0 17 0;
#X connect 30 0 29 1;
#X connect 31 0 21 0;
#X connect 32 0 53 0;
#X connect 33 0 36 0;
#X connect 34 0 35 0;
#X connect 35 0 39 0;
#X connect 36 0 6 1;
#X connect 37 0 38 0;
#X connect 38 0 2 0;
#X connect 39 0 33 0;
#X connect 40 0 57 0;
#X connect 40 1 34 0;
#X connect 41 0 46 0;
#X connect 43 0 44 0;
#X connect 46 0 47 0;
#X connect 46 1 43 0;
#X connect 46 2 42 0;
#X connect 47 0 49 0;
#X connect 48 0 54 0;
#X connect 49 0 50 0;
#X connect 49 1 48 0;
#X connect 50 0 51 0;
#X connect 51 0 19 0;
#X connect 51 1 29 0;
#X connect 52 0 47 1;
#X connect 53 0 62 0;
#X connect 54 0 52 0;
#X connect 55 0 60 0;
#X connect 56 0 0 0;
#X connect 56 0 0 1;
#X connect 56 0 44 0;
#X connect 57 0 18 0;
#X connect 58 0 1 0;
#X connect 59 0 4 0;
#X connect 59 0 56 0;
#X connect 60 0 40 0;
#X connect 61 0 59 0;
#X connect 62 0 4 1;
